<svg xmlns="http://www.w3.org/2000/svg" class="svg-icon" viewbox="0 0 170 40">
    <path fill="#00B9F1" fill-rule="evenodd" d="M169.997 35.618l-3.807 4.369-4.705-4.105c-3.489 2.525-7.401 3.789-11.79 3.789-2.696 0-5.234-.527-7.666-1.527-2.432-.947-4.547-2.315-6.291-4-1.745-1.737-3.119-3.79-4.176-6.264-1.005-2.367-1.535-4.999-1.535-7.79 0-2.736.53-5.368 1.587-7.788 1.005-2.475 2.432-4.58 4.229-6.318 1.745-1.789 3.86-3.157 6.345-4.157 2.379-1.053 4.969-1.58 7.665-1.58 2.697 0 5.288.527 7.667 1.527 2.432 1 4.547 2.368 6.291 4.106 1.745 1.737 3.173 3.841 4.23 6.263a20.462 20.462 0 0 1 1.533 7.79c0 4.473-1.322 8.474-3.965 11.949l4.388 3.736zm-8.512-22.737a13.822 13.822 0 0 0-4.917-5.106c-2.062-1.264-4.335-1.895-6.767-1.895-7.455-.158-13.588 6.422-13.428 14.105 0 2.527.581 4.896 1.744 7.054 1.163 2.158 2.802 3.843 4.863 5.106 2.063 1.262 4.337 1.893 6.821 1.893 2.591 0 4.969-.684 7.137-2.052l-7.137-6.105 3.859-4.421 7.296 6.42c1.534-2.367 2.274-4.999 2.274-7.895 0-2.578-.582-4.947-1.745-7.104zM121.6 7.655c-2.284 0-3.894-1.551-3.894-3.772 0-2.274 1.61-3.876 3.894-3.876 2.232 0 3.841 1.602 3.841 3.876 0 2.221-1.609 3.772-3.841 3.772zm3.062 31.316h-6.177V17.629h-3.945v-5.478h10.122v26.82zM104.373.213h6.177v38.758h-6.177V.213zm-12.664 0h6.177v38.758h-6.177V.213zM66.183 27.344c.467 4.288 3.217 6.976 7.525 6.976 3.167 0 5.347-1.395 6.54-4.134l5.555 1.446c-1.921 4.91-6.489 7.959-12.25 7.959-3.997 0-7.267-1.344-9.706-3.98-2.492-2.634-3.737-5.993-3.737-10.076 0-3.98 1.245-7.286 3.737-9.974 2.492-2.687 5.709-4.029 9.654-4.029 3.945 0 7.162 1.291 9.602 3.926 2.44 2.636 3.634 5.995 3.634 9.974l-.051 1.912H66.183zm7.318-10.801c-3.893 0-6.592 2.481-7.215 6.253h14.326c-.57-3.772-3.166-6.253-7.111-6.253zM54.068 38.971h-6.177v-21.91H43.79v-4.91h4.101V5.174h6.177v6.977h4.515v4.91h-4.515v21.91zm-19.583-16.07c0-3.773-1.765-6.1-5.347-6.1-3.945 0-6.332 2.481-6.332 6.615v15.555h-6.177v-26.82h5.71v3.566c1.245-2.326 4.204-4.185 8.305-4.185 6.384 0 10.018 4.185 10.018 10.593v16.846h-6.177v-16.07zM7.053 7.655c-2.284 0-3.893-1.551-3.893-3.772C3.16 1.609 4.769.007 7.053.007c2.232 0 3.841 1.602 3.841 3.876 0 2.221-1.609 3.772-3.841 3.772zm3.062 31.316H3.939V17.629H-.006v-5.478h10.121v26.82z"/>
</svg>
